# xmcd
#
# Track frame offsets: 
#        150
#        18313
#        33586
#        47093
#        62226
#        78234
#        91468
#        109862
#        121020
#        137397
#        150198
#
# Disc length: 2137 seconds
#
# Revision: 0
# Processed by: cddbd v1.5.2PL0 Copyright (c) Steve Scherf et al.
# Submitted via: ExactAudioCopy v0.99pb5
#
DISCID=7d08570b
DTITLE=Red Lefty - Ragged but Right
DYEAR=2010
DGENRE=Big Band
TTITLE0=Crazy Legs
TTITLE1=Ragged but Right
TTITLE2=My Four Reasons
TTITLE3=E-flat Hustle
TTITLE4=Copperhead
TTITLE5=Don't Be Mad
TTITLE6=Countless Blues
TTITLE7=Right or Wrong
TTITLE8=Sloppy Drunk
TTITLE9=Cross Ties
TTITLE10=Muskrat Ramble
EXTD=
EXTT0=
EXTT1=
EXTT2=
EXTT3=
EXTT4=
EXTT5=
EXTT6=
EXTT7=
EXTT8=
EXTT9=
EXTT10=
PLAYORDER=
